<?xml version="1.0"?>
<svg xmlns="http://www.w3.org/2000/svg" id="Outline" viewBox="0 0 512 512" width="40px" height="40px"><g><circle cx="136" cy="208" r="8" data-original="#000000" class="active-path" data-old_color="#000000" fill="#FFFFFF"/><circle cx="216" cy="208" r="8" data-original="#000000" class="active-path" data-old_color="#000000" fill="#FFFFFF"/><path d="M488,288H280a8,8,0,0,0-8,8v8H233.631a112.769,112.769,0,0,0,43.548-48H280a39.978,39.978,0,0,0,25.294-70.955A101.972,101.972,0,0,0,320,131.852c0-50.158-34.965-90.963-77.942-90.963a67.627,67.627,0,0,0-18.8,2.662A114.692,114.692,0,0,0,148.8,16C84.4,16,32,69.832,32,136a122.865,122.865,0,0,0,11.506,51.957A39.979,39.979,0,0,0,72,256h2.821a112.769,112.769,0,0,0,43.548,48H56a40.045,40.045,0,0,0-40,40V488a8,8,0,0,0,8,8H488a8,8,0,0,0,8-8V296A8,8,0,0,0,488,288Zm-8,16V448H288V304ZM206.165,320c-4.4,9.311-16.26,16-30.165,16s-25.762-6.689-30.165-16Zm77.243-80.246A111.652,111.652,0,0,0,288,208V193.376a24,24,0,0,1-4.592,46.378ZM304,131.852a85.6,85.6,0,0,1-12.888,45.723c-1.022-.3-2.059-.557-3.112-.771V153a8,8,0,0,0-8-8c-32.314,0-59.047-17.577-75.217-31.585,19.557-28.2,26.631-54.17,26.946-55.353L231.48,58a51.607,51.607,0,0,1,10.578-1.106C276.213,56.889,304,90.517,304,131.852ZM48,136C48,78.654,93.219,32,148.8,32a98.826,98.826,0,0,1,66.3,25.7,189.54,189.54,0,0,1-28.787,53.87C157.416,149.014,118.955,168,72,168a8,8,0,0,0-8,8v.8a39.59,39.59,0,0,0-7.03,2.134A106.954,106.954,0,0,1,48,136Zm88,48a24,24,0,1,1-24,24A24.028,24.028,0,0,1,136,184ZM96.805,200H80V183.825a165.856,165.856,0,0,0,27.07-3.4A39.933,39.933,0,0,0,96.805,200ZM48,216a24.039,24.039,0,0,1,16-22.624V208a111.652,111.652,0,0,0,4.592,31.754A24.035,24.035,0,0,1,48,216Zm32.336,0H96.805a40,40,0,1,0,45.246-47.542,160.392,160.392,0,0,0,53.054-42.266c16.881,14.44,43.806,32,76.9,34.505V200H255.2a40,40,0,1,0,0,16h16.469a96,96,0,0,1-191.328,0ZM240,208a24,24,0,1,1-24-24A24.028,24.028,0,0,1,240,208ZM190.624,480H168V464A24.039,24.039,0,0,1,190.624,480ZM152,480H129.376A24.039,24.039,0,0,1,152,464Zm88-24v24H207.2A40.069,40.069,0,0,0,168,448H152a40.069,40.069,0,0,0-39.195,32H32V344a24.028,24.028,0,0,1,24-24h72.966c4.46,18.235,23.853,32,47.034,32s42.574-13.765,47.034-32H272V448H248A8,8,0,0,0,240,456Zm240,24H256V464H480Z" data-original="#000000" class="active-path" data-old_color="#000000" fill="#FFFFFF"/><path d="M312,336h16a8,8,0,0,0,0-16H312a8,8,0,0,0,0,16Z" data-original="#000000" class="active-path" data-old_color="#000000" fill="#FFFFFF"/><path d="M312,368h16a8,8,0,0,0,0-16H312a8,8,0,0,0,0,16Z" data-original="#000000" class="active-path" data-old_color="#000000" fill="#FFFFFF"/><path d="M392,384H376a8,8,0,0,0,0,16h16a8,8,0,0,0,0-16Z" data-original="#000000" class="active-path" data-old_color="#000000" fill="#FFFFFF"/><circle cx="312" cy="392" r="8" data-original="#000000" class="active-path" data-old_color="#000000" fill="#FFFFFF"/><path d="M392,368h16a8,8,0,0,0,0-16H392a8,8,0,0,0,0,16Z" data-original="#000000" class="active-path" data-old_color="#000000" fill="#FFFFFF"/><path d="M360,336h16a8,8,0,0,0,0-16H360a8,8,0,0,0,0,16Z" data-original="#000000" class="active-path" data-old_color="#000000" fill="#FFFFFF"/><circle cx="408" cy="328" r="8" data-original="#000000" class="active-path" data-old_color="#000000" fill="#FFFFFF"/><circle cx="360" cy="360" r="8" data-original="#000000" class="active-path" data-old_color="#000000" fill="#FFFFFF"/><circle cx="312" cy="424" r="8" data-original="#000000" class="active-path" data-old_color="#000000" fill="#FFFFFF"/><circle cx="344" cy="392" r="8" data-original="#000000" class="active-path" data-old_color="#000000" fill="#FFFFFF"/><circle cx="392" cy="424" r="8" data-original="#000000" class="active-path" data-old_color="#000000" fill="#FFFFFF"/><circle cx="424" cy="424" r="8" data-original="#000000" class="active-path" data-old_color="#000000" fill="#FFFFFF"/><circle cx="424" cy="392" r="8" data-original="#000000" class="active-path" data-old_color="#000000" fill="#FFFFFF"/><circle cx="440" cy="360" r="8" data-original="#000000" class="active-path" data-old_color="#000000" fill="#FFFFFF"/><path d="M360,416H344a8,8,0,0,0,0,16h16a8,8,0,0,0,0-16Z" data-original="#000000" class="active-path" data-old_color="#000000" fill="#FFFFFF"/><path d="M195.562,257.344c-13.345,8.9-25.779,8.9-39.124,0a8,8,0,1,0-8.876,13.312c9.3,6.2,18.871,9.3,28.438,9.3s19.136-3.1,28.438-9.3a8,8,0,0,0-8.876-13.312Z" data-original="#000000" class="active-path" data-old_color="#000000" fill="#FFFFFF"/></g> </svg>
